PathFileType	4	(X/Y/Z)	OpenSim_Sub04_EMGStiffKnee_Magnet.trc
DataRate	CameraRate	NumFrames	NumMarkers	Units	OrigDataRate	OrigDataStartFrame	OrigNumFrames
100	100	40	8	m	100	4139	8277
Frame#	Time	torso_imu_offset_imu	pelvis_imu_offset_imu	tibia_r_imu_offset_imu	femur_r_imu_offset_imu	tibia_l_imu_offset_imu	femur_l_imu_offset_imu	toes_r_imu_offset_imu	toes_l_imu_offset_imu
				X1	Y1	Z1	X2	Y2	Z2	X3	Y3	Z3	X4	Y4	Z4	X5	Y5	Z5	X6	Y6	Z6	X7	Y7	Z7	X8		Y8	Z8	

4139	41.38000000	0.93109517	0.19732756	-0.11784603	-0.55929235	0.09445027	-0.74697621	-0.33909801	-0.74839588	-0.14189795	-0.76470324	-0.35796358	0.08584901	-0.69186667	0.39270523	0.23234916	-0.67811667	0.21954451	0.43736417	-0.79579086	-0.34550016	-0.38425336	-0.65818508	-0.34501116	-0.36133960
4140	41.39000000	0.93353905	0.19811315	-0.11889973	-0.55889158	0.10003418	-0.74449017	-0.33325063	-0.75154115	-0.14277507	-0.76374598	-0.36238776	0.08508682	-0.69649691	0.38862084	0.23006107	-0.67847878	0.20979347	0.43556466	-0.79843090	-0.34586981	-0.36803233	-0.64839980	-0.34418207	-0.36182640
4141	41.40000000	0.93558050	0.19625557	-0.12161167	-0.56234819	0.10108715	-0.74454525	-0.32741149	-0.75941502	-0.14988776	-0.76481559	-0.36210302	0.08503369	-0.69881194	0.37816040	0.22701479	-0.68301007	0.20727324	0.43689233	-0.80641542	-0.35189111	-0.35751506	-0.64579834	-0.35067967	-0.35923369
4142	41.41000000	0.93046332	0.19829243	-0.12173585	-0.56134452	0.10453485	-0.73909070	-0.31703255	-0.76124476	-0.15116839	-0.76039567	-0.36598906	0.07859342	-0.70359694	0.37300043	0.22442702	-0.68219343	0.20678270	0.43322828	-0.81428642	-0.35816726	-0.33951217	-0.64395597	-0.35707261	-0.35672635
4143	41.42000000	0.93100672	0.20420857	-0.12664381	-0.57105948	0.10842707	-0.73393556	-0.30799080	-0.76546257	-0.15287818	-0.75829784	-0.37492838	0.07974962	-0.69978205	0.37113988	0.22665562	-0.68169159	0.20384734	0.43450380	-0.81726703	-0.35816873	-0.32276538	-0.63976590	-0.34944764	-0.35546205
4144	41.43000000	0.93272994	0.20160954	-0.12663239	-0.57647530	0.10695935	-0.73373557	-0.29646212	-0.77166458	-0.15778826	-0.75725320	-0.37642468	0.07463761	-0.69771573	0.37000778	0.22683088	-0.68436072	0.20344370	0.43251653	-0.82365823	-0.35957646	-0.30768895	-0.64774954	-0.35051396	-0.34801369
4145	41.44000000	0.93106076	0.20175641	-0.12116012	-0.57683481	0.10982340	-0.73224518	-0.28841735	-0.77330873	-0.16124915	-0.75690798	-0.37447177	0.06744081	-0.69590954	0.36980560	0.23137735	-0.68584542	0.20085312	0.44031935	-0.83222181	-0.36151404	-0.29047271	-0.65076855	-0.35430054	-0.33933683
4146	41.45000000	0.93091814	0.20379845	-0.12548201	-0.57837496	0.11912032	-0.73187673	-0.27368387	-0.77993788	-0.16095963	-0.75957776	-0.37620712	0.06865739	-0.69174110	0.37229580	0.23977958	-0.68352609	0.19873946	0.43511483	-0.83418039	-0.36645611	-0.27501870	-0.65725662	-0.35749728	-0.32799326
4147	41.46000000	0.93318830	0.20128091	-0.12587457	-0.58012635	0.12185534	-0.72904255	-0.25966818	-0.78220301	-0.15752845	-0.76093374	-0.37726039	0.06955364	-0.69200382	0.38286243	0.23971119	-0.68579309	0.19730405	0.43000207	-0.83716250	-0.36870727	-0.25270286	-0.66853596	-0.35374199	-0.31551590
4148	41.47000000	0.92974279	0.20472904	-0.12715331	-0.58580002	0.12758946	-0.72069709	-0.24867666	-0.78632010	-0.15896856	-0.75912589	-0.37696008	0.06334817	-0.68856012	0.38919185	0.25105215	-0.68383531	0.19240409	0.42971552	-0.84185923	-0.36791492	-0.23348850	-0.66862893	-0.34704128	-0.31854328
4149	41.48000000	0.92917115	0.20462507	-0.13565192	-0.58759846	0.13243581	-0.71736198	-0.22868780	-0.79248685	-0.16194905	-0.75923143	-0.37710806	0.05467956	-0.67533858	0.40054917	0.26145133	-0.68265618	0.19506720	0.42907822	-0.84444109	-0.37060279	-0.21345953	-0.66616484	-0.33859677	-0.32449749
4150	41.49000000	0.92803748	0.20156231	-0.13773337	-0.59563601	0.13807831	-0.71109437	-0.20714913	-0.79370175	-0.15991074	-0.76064764	-0.36988657	0.05649658	-0.66086743	0.41443471	0.27122702	-0.68295308	0.19425786	0.43991159	-0.84803390	-0.37358166	-0.18653863	-0.66622396	-0.33332965	-0.33024476
4151	41.50000000	0.92655005	0.20180056	-0.13409386	-0.59961913	0.14093570	-0.70608440	-0.18804631	-0.80257414	-0.15785235	-0.76217264	-0.36206491	0.05447988	-0.65522196	0.42553775	0.28407260	-0.68169374	0.18769174	0.44848429	-0.84981957	-0.37896781	-0.15873347	-0.66921408	-0.33632352	-0.33471684
4152	41.51000000	0.92731693	0.20296469	-0.13530821	-0.59585186	0.14363988	-0.69839389	-0.16416788	-0.80847105	-0.15966999	-0.76936678	-0.35076992	0.05221441	-0.64518549	0.43260968	0.28465097	-0.67883372	0.18321129	0.45008214	-0.85150369	-0.38572472	-0.12075701	-0.66933899	-0.33425589	-0.33814976
4153	41.52000000	0.92518749	0.20435867	-0.14068132	-0.60382544	0.15593403	-0.69406542	-0.14041967	-0.81336403	-0.15100733	-0.77779047	-0.34230904	0.05438137	-0.63909459	0.43249617	0.28960204	-0.67102512	0.18258308	0.45757903	-0.84737605	-0.39109082	-0.08208462	-0.66648971	-0.33376554	-0.33947787
4154	41.53000000	0.92716862	0.20393787	-0.14324288	-0.60716352	0.15730412	-0.69291645	-0.12159732	-0.81896235	-0.14380130	-0.78158009	-0.33074490	0.05118372	-0.63391492	0.43381216	0.30199750	-0.67338255	0.18313749	0.46545074	-0.84321998	-0.40101600	-0.04284640	-0.66470229	-0.33834382	-0.33732637
4155	41.54000000	0.92714327	0.20450186	-0.14767416	-0.60536947	0.15274537	-0.69497504	-0.09923619	-0.82286496	-0.14079358	-0.79327768	-0.31069209	0.05268248	-0.63368649	0.43482582	0.30496108	-0.66953367	0.18130395	0.46534438	-0.83830641	-0.41085118	-0.00015903	-0.66728700	-0.33892093	-0.33911189
4156	41.55000000	0.92526356	0.20239195	-0.14633950	-0.61088611	0.15911379	-0.69310741	-0.07493317	-0.82655918	-0.13051824	-0.80110693	-0.29266625	0.05101311	-0.62464185	0.44279017	0.30839057	-0.66313152	0.18973160	0.46562098	-0.82937189	-0.41697553	0.03933415	-0.67106320	-0.33889985	-0.34016307
4157	41.56000000	0.92676324	0.20474183	-0.14865073	-0.60941258	0.16166709	-0.68527347	-0.04979161	-0.82570330	-0.12030483	-0.80475373	-0.27254967	0.04517521	-0.61655384	0.44901012	0.31654851	-0.66240725	0.19575566	0.46489571	-0.81899780	-0.43378932	0.07744120	-0.66585346	-0.33868167	-0.34048921
4158	41.57000000	0.92154547	0.20938350	-0.15462684	-0.61088868	0.15649797	-0.68606886	-0.02524901	-0.82619561	-0.10347368	-0.81194079	-0.25336505	0.04672754	-0.61956102	0.45571785	0.31689388	-0.65888971	0.20278087	0.46806954	-0.80473243	-0.45089520	0.11226368	-0.66533745	-0.33985023	-0.33813347
4159	41.58000000	0.92306363	0.20619857	-0.15383179	-0.61207268	0.15008476	-0.68193336	-0.01217649	-0.82508226	-0.08863509	-0.81387873	-0.23202449	0.03994701	-0.60680069	0.46130372	0.32041798	-0.65561639	0.20765859	0.46815524	-0.78928237	-0.45562452	0.14232532	-0.67221488	-0.34171329	-0.34204302
4160	41.59000000	0.92822276	0.21051285	-0.15164625	-0.61141448	0.14428611	-0.68379435	0.00712120	-0.82983672	-0.07818046	-0.82252940	-0.21263925	0.03445044	-0.59831473	0.46615628	0.32330920	-0.65345796	0.20721763	0.46366251	-0.77870822	-0.45750409	0.16175654	-0.66939092	-0.33885959	-0.34841405
4161	41.60000000	0.92297582	0.21444689	-0.14925220	-0.61173492	0.14294932	-0.69299701	0.02244730	-0.82938647	-0.06623418	-0.83277180	-0.19427363	0.03157111	-0.60031301	0.47533853	0.32579733	-0.65224388	0.21234290	0.46244348	-0.77441251	-0.45749338	0.16676401	-0.67673871	-0.33580633	-0.34444101
4162	41.61000000	0.92092070	0.21264421	-0.14908269	-0.61010472	0.14112625	-0.69338775	0.02866796	-0.82670765	-0.06563519	-0.83506116	-0.17579435	0.03030638	-0.59995335	0.47758099	0.33086911	-0.65336916	0.21806990	0.46546268	-0.76969897	-0.45471090	0.18025217	-0.67574713	-0.33204547	-0.34990402
4163	41.62000000	0.92169425	0.21775191	-0.15221580	-0.60998856	0.14438455	-0.68982349	0.03225124	-0.82621654	-0.07225717	-0.83867095	-0.16340246	0.03458175	-0.59145723	0.47932739	0.33311847	-0.64971549	0.22149963	0.46696578	-0.76944359	-0.44726502	0.18040469	-0.67419915	-0.33064091	-0.35082403
4164	41.63000000	0.92529391	0.22329427	-0.15266837	-0.60564180	0.14434281	-0.69151241	0.02308221	-0.82497030	-0.06321413	-0.83704868	-0.14956918	0.02707599	-0.58008600	0.48380309	0.33860925	-0.64471027	0.22207108	0.47166845	-0.77710055	-0.43832751	0.16532758	-0.68284752	-0.32534013	-0.34857723
4165	41.64000000	0.92025285	0.22766339	-0.14888384	-0.60516914	0.14149559	-0.69503648	0.01357379	-0.83123976	-0.05470820	-0.84401622	-0.12937234	0.01589816	-0.57687815	0.48283127	0.33856726	-0.64332967	0.23115780	0.47717242	-0.78301259	-0.43962357	0.15932235	-0.68169116	-0.32237418	-0.35832280
4166	41.65000000	0.91890307	0.23024893	-0.14632839	-0.60432716	0.14819670	-0.69206966	-0.00846764	-0.82998905	-0.05135806	-0.85085044	-0.11349023	0.01055737	-0.58008453	0.48334145	0.34804671	-0.63411378	0.23781935	0.47599688	-0.78249947	-0.42759757	0.13882189	-0.68764598	-0.31979339	-0.35134069
4167	41.66000000	0.92299627	0.23418252	-0.14846448	-0.60227822	0.15417711	-0.69626286	-0.02807274	-0.82310743	-0.04604304	-0.84965864	-0.09708775	0.00412548	-0.57458596	0.48971804	0.34782767	-0.62859495	0.23461691	0.48401393	-0.78867866	-0.41468202	0.10677309	-0.69193181	-0.32087649	-0.34498794
4168	41.67000000	0.91856175	0.23435724	-0.14866958	-0.60625034	0.15465125	-0.69631202	-0.04791103	-0.82316736	-0.04581178	-0.85210674	-0.07872652	-0.00316591	-0.56880698	0.49650663	0.34456538	-0.62698640	0.23762213	0.49200140	-0.79566339	-0.41275722	0.07520139	-0.69501754	-0.31872776	-0.35321130
4169	41.68000000	0.92088324	0.23735628	-0.14549945	-0.60397553	0.15348777	-0.69198319	-0.07557015	-0.82224162	-0.04564346	-0.85272289	-0.06386606	-0.01224458	-0.56601935	0.50170356	0.35103007	-0.61852494	0.24888483	0.49091459	-0.79078103	-0.39949721	0.03913799	-0.69916865	-0.31308522	-0.35013811
4170	41.69000000	0.92082267	0.24398527	-0.14662338	-0.60336602	0.15897980	-0.69710235	-0.10790837	-0.81947627	-0.04758526	-0.85714945	-0.04813236	-0.01935915	-0.56356922	0.49927402	0.35211546	-0.61775583	0.25081632	0.49581849	-0.78114087	-0.38668318	0.00234701	-0.70038272	-0.31281037	-0.34902013
4171	41.70000000	0.91779785	0.23796903	-0.14609054	-0.60221988	0.16271152	-0.69325089	-0.13879236	-0.81284642	-0.05518461	-0.85902957	-0.03315648	-0.02650109	-0.56208788	0.50623663	0.35494910	-0.61577287	0.25270227	0.49593368	-0.77810638	-0.36965809	-0.03363292	-0.70642148	-0.31213731	-0.35024610
4172	41.71000000	0.91851469	0.23926025	-0.14648795	-0.60225648	0.16722611	-0.69182019	-0.17243157	-0.80438180	-0.06376942	-0.85556726	-0.02215359	-0.02826299	-0.55740290	0.51240047	0.35372838	-0.61174906	0.25723583	0.49703840	-0.76945710	-0.35145173	-0.06623984	-0.71450111	-0.30799451	-0.34536159
4173	41.72000000	0.91812289	0.24572649	-0.14515641	-0.59754935	0.16982015	-0.69608470	-0.20886500	-0.79531115	-0.07032208	-0.85816778	-0.01155880	-0.03137656	-0.55247753	0.51294713	0.35419187	-0.61133538	0.26355215	0.49906761	-0.75331748	-0.33589287	-0.09441124	-0.72317109	-0.30726303	-0.34527380
4174	41.73000000	0.91833275	0.24084867	-0.14440654	-0.59891476	0.16713530	-0.69333362	-0.23691980	-0.78408824	-0.07855587	-0.85827601	0.00372353	-0.04020016	-0.55016173	0.52013103	0.35175888	-0.60321830	0.27235683	0.49585729	-0.74269473	-0.32258468	-0.11928571	-0.72713355	-0.30816751	-0.34306395
4175	41.74000000	0.91855612	0.23668081	-0.14120080	-0.60356149	0.17094476	-0.69397094	-0.27448468	-0.76895653	-0.08820019	-0.85832329	0.01076394	-0.03676481	-0.54442405	0.52341252	0.35312247	-0.59962991	0.27583554	0.50105249	-0.72704572	-0.30952978	-0.14301428	-0.72934698	-0.30421292	-0.33783015
4176	41.75000000	0.91812377	0.24052895	-0.14146974	-0.60170665	0.16956277	-0.69359300	-0.31089348	-0.75363928	-0.09818237	-0.85979795	0.01816070	-0.03918009	-0.53801106	0.53032416	0.35461774	-0.59689518	0.28030702	0.50157950	-0.71615651	-0.29256794	-0.16781866	-0.73099705	-0.30017494	-0.33473057
4177	41.76000000	0.91923343	0.24059702	-0.13682248	-0.59846802	0.17234940	-0.68757121	-0.34296577	-0.74337210	-0.10543322	-0.86093380	0.02572427	-0.04864058	-0.53827044	0.53867061	0.35087459	-0.59186261	0.28558401	0.50141939	-0.71630949	-0.28103246	-0.18934321	-0.73786982	-0.30136269	-0.33228156
4178	41.77000000	0.92087251	0.23623246	-0.13673985	-0.59475225	0.17518727	-0.69415281	-0.37586693	-0.72267168	-0.11719962	-0.86223886	0.03174547	-0.04900421	-0.53638304	0.54341740	0.35010016	-0.58967250	0.29320683	0.50922256	-0.71422705	-0.26933821	-0.21149601	-0.74849106	-0.30025268	-0.32482143
